<mxfile host="app.diagrams.net" agent="Mozilla/5.0 (X11; Linux x86_64) AppleWebKit/537.36 (KHTML, like Gecko) Chrome/128.0.0.0 Safari/537.36" version="24.7.16">
  <diagram name="Page-1" id="A1Mz2oCps74WJ4AT8Hiz">
    <mxGraphModel dx="1368" dy="788" grid="1" gridSize="10" guides="1" tooltips="1" connect="1" arrows="1" fold="1" page="1" pageScale="1" pageWidth="850" pageHeight="1100" math="0" shadow="0">
      <root>
        <mxCell id="0" />
        <mxCell id="1" parent="0" />
        <mxCell id="EZBpUCj3RQlfehk8YNQB-10" style="edgeStyle=orthogonalEdgeStyle;rounded=0;orthogonalLoop=1;jettySize=auto;html=1;exitX=0;exitY=0.5;exitDx=0;exitDy=0;entryX=0.5;entryY=0;entryDx=0;entryDy=0;" edge="1" parent="1" source="EZBpUCj3RQlfehk8YNQB-1" target="EZBpUCj3RQlfehk8YNQB-2">
          <mxGeometry relative="1" as="geometry" />
        </mxCell>
        <mxCell id="EZBpUCj3RQlfehk8YNQB-11" style="edgeStyle=orthogonalEdgeStyle;rounded=0;orthogonalLoop=1;jettySize=auto;html=1;exitX=1;exitY=0.5;exitDx=0;exitDy=0;entryX=0.5;entryY=0;entryDx=0;entryDy=0;" edge="1" parent="1" source="EZBpUCj3RQlfehk8YNQB-1" target="EZBpUCj3RQlfehk8YNQB-3">
          <mxGeometry relative="1" as="geometry" />
        </mxCell>
        <mxCell id="EZBpUCj3RQlfehk8YNQB-1" value="&lt;font style=&quot;font-size: 20px;&quot;&gt;419&lt;/font&gt;" style="ellipse;whiteSpace=wrap;html=1;aspect=fixed;" vertex="1" parent="1">
          <mxGeometry x="385" y="40" width="80" height="80" as="geometry" />
        </mxCell>
        <mxCell id="EZBpUCj3RQlfehk8YNQB-14" style="edgeStyle=orthogonalEdgeStyle;rounded=0;orthogonalLoop=1;jettySize=auto;html=1;exitX=1;exitY=0.5;exitDx=0;exitDy=0;entryX=0.5;entryY=0;entryDx=0;entryDy=0;" edge="1" parent="1" source="EZBpUCj3RQlfehk8YNQB-2" target="EZBpUCj3RQlfehk8YNQB-5">
          <mxGeometry relative="1" as="geometry" />
        </mxCell>
        <mxCell id="EZBpUCj3RQlfehk8YNQB-15" style="edgeStyle=orthogonalEdgeStyle;rounded=0;orthogonalLoop=1;jettySize=auto;html=1;exitX=0;exitY=0.5;exitDx=0;exitDy=0;entryX=0.5;entryY=0;entryDx=0;entryDy=0;" edge="1" parent="1" source="EZBpUCj3RQlfehk8YNQB-2" target="EZBpUCj3RQlfehk8YNQB-4">
          <mxGeometry relative="1" as="geometry" />
        </mxCell>
        <mxCell id="EZBpUCj3RQlfehk8YNQB-2" value="&lt;font style=&quot;font-size: 20px;&quot;&gt;408&lt;/font&gt;" style="ellipse;whiteSpace=wrap;html=1;aspect=fixed;" vertex="1" parent="1">
          <mxGeometry x="230" y="190" width="80" height="80" as="geometry" />
        </mxCell>
        <mxCell id="EZBpUCj3RQlfehk8YNQB-12" style="edgeStyle=orthogonalEdgeStyle;rounded=0;orthogonalLoop=1;jettySize=auto;html=1;exitX=1;exitY=0.5;exitDx=0;exitDy=0;" edge="1" parent="1" source="EZBpUCj3RQlfehk8YNQB-3" target="EZBpUCj3RQlfehk8YNQB-7">
          <mxGeometry relative="1" as="geometry" />
        </mxCell>
        <mxCell id="EZBpUCj3RQlfehk8YNQB-13" style="edgeStyle=orthogonalEdgeStyle;rounded=0;orthogonalLoop=1;jettySize=auto;html=1;exitX=0;exitY=0.5;exitDx=0;exitDy=0;" edge="1" parent="1" source="EZBpUCj3RQlfehk8YNQB-3" target="EZBpUCj3RQlfehk8YNQB-6">
          <mxGeometry relative="1" as="geometry" />
        </mxCell>
        <mxCell id="EZBpUCj3RQlfehk8YNQB-3" value="&lt;font style=&quot;font-size: 20px;&quot;&gt;83&lt;/font&gt;" style="ellipse;whiteSpace=wrap;html=1;aspect=fixed;" vertex="1" parent="1">
          <mxGeometry x="550" y="190" width="80" height="80" as="geometry" />
        </mxCell>
        <mxCell id="EZBpUCj3RQlfehk8YNQB-4" value="&lt;font style=&quot;font-size: 20px;&quot;&gt;186&lt;/font&gt;" style="ellipse;whiteSpace=wrap;html=1;aspect=fixed;" vertex="1" parent="1">
          <mxGeometry x="120" y="400" width="80" height="80" as="geometry" />
        </mxCell>
        <mxCell id="EZBpUCj3RQlfehk8YNQB-5" value="" style="ellipse;whiteSpace=wrap;html=1;aspect=fixed;" vertex="1" parent="1">
          <mxGeometry x="340" y="400" width="80" height="80" as="geometry" />
        </mxCell>
        <mxCell id="EZBpUCj3RQlfehk8YNQB-6" value="" style="ellipse;whiteSpace=wrap;html=1;aspect=fixed;" vertex="1" parent="1">
          <mxGeometry x="440" y="400" width="80" height="80" as="geometry" />
        </mxCell>
        <mxCell id="EZBpUCj3RQlfehk8YNQB-7" value="" style="ellipse;whiteSpace=wrap;html=1;aspect=fixed;" vertex="1" parent="1">
          <mxGeometry x="670" y="400" width="80" height="80" as="geometry" />
        </mxCell>
        <mxCell id="EZBpUCj3RQlfehk8YNQB-16" value="&lt;b style=&quot;font-size: 20px;&quot;&gt;Amount&lt;br&gt;6249&lt;/b&gt;" style="rounded=0;whiteSpace=wrap;html=1;" vertex="1" parent="1">
          <mxGeometry x="20" y="20" width="120" height="60" as="geometry" />
        </mxCell>
      </root>
    </mxGraphModel>
  </diagram>
</mxfile>
